# xmcd
#
# Track frame offsets:
# 150
# 17839
# 32973
# 49292
# 67118
# 82320
# 98879
# 116524
# 132812
# 148492
# 162501
# 176019
# 192116
# 209603
# 227312
#
# Disc length: 3252 seconds
#
#
# Revision: 2
# Processed by: cddbd v1.5.1PL0 Copyright (c) Steve Scherf et al.
# Submitted via: FreeRIP 2.90 
#
DISCID=e20cb20f
DTITLE=Bruno e Marrone - Meu presente e voce
DYEAR=2005
DGENRE=Country
TTITLE0=Choram as rosas
TTITLE1=Cuida do nosso amor
TTITLE2=Quer casar comigo?
TTITLE3=Por um gole a mais
TTITLE4=Faz mais, Faz
TTITLE5=Porque choras?
TTITLE6=Por te amar Demais
TTITLE7=Vai sofrer pra la
TTITLE8=Que percar que nada
TTITLE9=Nao tem outro jeito
TTITLE10=A Culpa e sua
TTITLE11=Raridade
TTITLE12=Meu presente e voce
TTITLE13=Uma grande mentira
TTITLE14=Se nao for por amor
EXTD=YEAR: 2005
EXTT0=
EXTT1=
EXTT2=
EXTT3=
EXTT4=
EXTT5=
EXTT6=
EXTT7=
EXTT8=
EXTT9=
EXTT10=
EXTT11=
EXTT12=
EXTT13=
EXTT14=
PLAYORDER=
